<svg xmlns="http://www.w3.org/2000/svg" height="800" width="1200" viewBox="-90.9 -70.5 787.8 423"><g fill-rule="evenodd" fill="none"><path fill="#3F3B3C" d="M21.037 255C11.012 255 6 258.922 6 266.762 6 273.588 9.545 277 16.633 277c2.72 0 5.655-.543 8.807-1.634 3.15-1.088 6.337-2.685 9.56-4.791V256.96c-4.87-1.307-9.524-1.96-13.963-1.96m1.589-30C34.876 225 41 230.353 41 241.056v38.141c0 1.079-.53 1.617-1.591 1.617h-2.23c-1.065 0-1.632-.538-1.7-1.617l-.426-4.633C28.962 279.52 22.59 282 15.933 282c-4.887 0-8.764-1.419-11.63-4.257C1.432 274.907 0 271.117 0 266.375c0-5.241 1.753-9.373 5.258-12.39 3.505-3.018 8.34-4.524 14.5-4.524 2.266 0 4.743.215 7.434.645 2.69.43 5.275 1.041 7.755 1.832v-9.05c0-4.382-1.029-7.526-3.08-9.429-2.056-1.902-5.454-2.855-10.198-2.855-4.39 0-9.029.718-13.915 2.155-.779.216-1.398.412-1.858.593-.463.18-.833.268-1.115.268-.851 0-1.275-.466-1.275-1.4v-1.724c0-1.078.459-1.794 1.381-2.154 2.69-1.08 5.577-1.904 8.655-2.479a49.438 49.438 0 019.084-.863m95.274 0c4.926 0 8.675 1.364 11.245 4.09 2.569 2.724 3.855 6.74 3.855 12.05v37.267c0 1.063-.537 1.593-1.607 1.593h-2.892c-1.07 0-1.606-.53-1.606-1.593v-34.72c0-4.67-.804-8.032-2.41-10.087-1.608-2.052-4.23-3.078-7.871-3.078-6.854 0-13.316 2.23-19.384 6.69.214 1.699.321 3.363.321 4.99v36.205c0 1.063-.535 1.593-1.607 1.593h-2.89c-1.07 0-1.607-.53-1.607-1.593v-34.72c0-4.67-.804-8.032-2.41-10.087-1.606-2.052-4.23-3.078-7.87-3.078-6.641 0-12.995 2.16-19.063 6.478v41.407c0 1.063-.538 1.593-1.606 1.593h-2.892c-1.071 0-1.606-.53-1.606-1.593v-50.22c0-1.063.535-1.594 1.606-1.594h2.142c1.07 0 1.677.531 1.818 1.594l.431 4.247c3.212-2.336 6.567-4.159 10.065-5.468 3.499-1.31 6.963-1.966 10.389-1.966 6.709 0 11.207 2.728 13.493 8.176 3.428-2.688 7.016-4.725 10.764-6.105 3.75-1.38 7.478-2.071 11.193-2.071m47.136 30C155.013 255 150 258.922 150 266.762c0 6.826 3.545 10.238 10.634 10.238 2.719 0 5.655-.543 8.806-1.634 3.15-1.088 6.337-2.685 9.56-4.791V256.96c-4.87-1.308-9.525-1.961-13.963-1.961m1.588-30c12.25 0 18.375 5.353 18.375 16.056v38.141c0 1.079-.531 1.617-1.592 1.617h-2.23c-1.064 0-1.63-.538-1.7-1.617l-.424-4.633c-6.093 4.956-12.465 7.436-19.12 7.436-4.888 0-8.764-1.419-11.63-4.257-2.87-2.836-4.304-6.626-4.304-11.368 0-5.241 1.753-9.373 5.258-12.39 3.506-3.018 8.34-4.524 14.5-4.524 2.266 0 4.743.215 7.434.645 2.69.43 5.275 1.041 7.755 1.832v-9.05c0-4.382-1.03-7.526-3.082-9.429-2.054-1.902-5.453-2.855-10.197-2.855-4.389 0-9.028.718-13.914 2.155-.78.216-1.397.412-1.857.593-.464.18-.833.268-1.116.268-.85 0-1.275-.466-1.275-1.4v-1.724c0-1.078.46-1.794 1.381-2.154 2.69-1.08 5.577-1.904 8.656-2.479a49.426 49.426 0 019.082-.863M236 276.242v2.147c0 1.075-.536 1.611-1.61 1.611h-37.78c-1.074 0-1.61-.536-1.61-1.61v-2.255c0-.713.09-1.287.27-1.718.176-.43.516-.929 1.02-1.502l32.627-41.546h-31.234c-1.072 0-1.611-.538-1.611-1.61v-2.147c0-1.075.539-1.612 1.611-1.612h36.492c1.074 0 1.61.537 1.61 1.612v2.254a4.81 4.81 0 01-.268 1.61c-.18.502-.554 1.073-1.128 1.717l-32.734 41.44h32.734c1.075 0 1.611.536 1.611 1.61m31.5.757c12.332 0 18.5-7.685 18.5-23.053C286 238.65 279.832 231 267.5 231c-12.335 0-18.5 7.65-18.5 22.947 0 15.368 6.165 23.053 18.5 23.053m0 5c-7.674 0-13.677-2.476-18.006-7.432-4.33-4.954-6.494-11.993-6.494-21.12s2.165-16.149 6.494-21.068c4.329-4.92 10.332-7.38 18.006-7.38 7.672 0 13.675 2.46 18.005 7.38 4.33 4.92 6.495 11.941 6.495 21.068s-2.165 16.166-6.495 21.12c-4.33 4.956-10.333 7.432-18.005 7.432m65.196-57c5.36 0 9.418 1.364 12.175 4.09 2.753 2.724 4.129 6.74 4.129 12.05v37.267c0 1.063-.543 1.593-1.628 1.593h-2.937c-1.087 0-1.629-.53-1.629-1.593v-34.72c0-4.67-.909-8.032-2.72-10.087-1.81-2.052-4.71-3.078-8.695-3.078-3.84 0-7.5.585-10.979 1.752-3.477 1.168-6.885 2.85-10.217 5.044v41.089c0 1.063-.545 1.593-1.63 1.593h-2.934c-1.087 0-1.631-.53-1.631-1.593v-50.22c0-1.063.544-1.594 1.631-1.594h2.174c1.086 0 1.702.531 1.845 1.594l.437 4.565c3.478-2.477 7.174-4.388 11.088-5.734 3.91-1.345 7.752-2.018 11.521-2.018m253.34 29C576.012 254 571 257.922 571 265.762c0 6.826 3.546 10.238 10.634 10.238 2.718 0 5.654-.543 8.806-1.634 3.15-1.088 6.337-2.685 9.56-4.791V255.96c-4.87-1.308-9.525-1.961-13.964-1.961zm1.59-29c12.25 0 18.374 5.353 18.374 16.056v38.141c0 1.079-.531 1.617-1.592 1.617h-2.23c-1.064 0-1.63-.538-1.7-1.617l-.424-4.633c-6.092 4.956-12.465 7.436-19.119 7.436-4.888 0-8.764-1.419-11.632-4.257-2.87-2.836-4.303-6.626-4.303-11.368 0-5.241 1.755-9.373 5.258-12.39 3.506-3.018 8.339-4.524 14.5-4.524 2.265 0 4.743.215 7.435.645 2.69.43 5.275 1.041 7.755 1.832v-9.05c0-4.382-1.029-7.526-3.082-9.429-2.055-1.902-5.453-2.855-10.197-2.855-4.39 0-9.028.718-13.914 2.155-.78.216-1.4.412-1.858.593-.464.18-.833.268-1.115.268-.852 0-1.276-.466-1.276-1.4v-1.724c0-1.078.46-1.794 1.382-2.154 2.69-1.08 5.576-1.904 8.656-2.479a49.412 49.412 0 019.082-.863zm-52.447 31.168l-15.536 22.65c-.573.79-1.322 1.182-2.25 1.182h-3c-.93 0-1.393-.392-1.393-1.182 0-.284.249-.751.75-1.394l18.322-25.55-16.715-23.405c-.428-.643-.643-1.072-.643-1.287 0-.788.464-1.182 1.392-1.182h3.322c.928 0 1.679.394 2.25 1.182l14.037 19.969 14.035-19.969c.57-.788 1.287-1.182 2.143-1.182h2.892c.929 0 1.393.394 1.393 1.182 0 .288-.213.75-.642 1.395l-16.501 22.867 18.323 25.98c.429.643.642 1.11.642 1.394 0 .79-.466 1.182-1.394 1.182h-3.32c-.858 0-1.572-.392-2.143-1.182zM485.239 230c-5.332 0-9.547 1.595-12.64 4.787-3.094 3.193-4.96 7.872-5.599 14.037a67.165 67.165 0 008.266 1.633 62.67 62.67 0 008.265.543c5.335 0 9.245-.796 11.736-2.393 2.488-1.596 3.733-4.136 3.733-7.617 0-7.328-4.587-10.99-13.76-10.99zm14.302 44.62c.932-.283 1.615-.515 2.046-.695.43-.177.824-.266 1.184-.266.862 0 1.291.464 1.291 1.39v1.496c0 1.143-.394 1.89-1.183 2.246-5.17 2.138-10.659 3.209-16.473 3.209-8.253 0-14.553-2.37-18.894-7.112-4.343-4.74-6.512-11.673-6.512-20.799 0-4.492.573-8.539 1.72-12.138 1.148-3.6 2.816-6.666 5.006-9.198 2.189-2.53 4.863-4.455 8.02-5.773 3.16-1.32 6.712-1.98 10.66-1.98 6.244 0 11.07 1.428 14.48 4.277 3.409 2.855 5.114 6.844 5.114 11.979 0 5.063-1.813 8.787-5.436 11.176-3.625 2.386-9.242 3.582-16.85 3.582a71.52 71.52 0 01-8.234-.482 50.965 50.965 0 01-8.238-1.657c0 7.698 1.632 13.384 4.899 17.056 3.266 3.674 8.164 5.507 14.695 5.507 4.236 0 8.47-.604 12.705-1.818zM440 202.615c0-1.076.55-1.615 1.655-1.615h2.977c1.101 0 1.654.54 1.654 1.615v68.695c0 1.579.312 2.691.939 3.337.623.648 1.745.97 3.364.97.44 0 .937-.036 1.488-.107.55-.073 1.01-.108 1.378-.108 1.028 0 1.545.502 1.545 1.507v2.045c0 .862-.479 1.4-1.434 1.615-.441.143-1.086.25-1.93.323-.848.07-1.6.108-2.262.108-2.941 0-5.24-.843-6.894-2.532-1.653-1.684-2.48-4.036-2.48-7.05zM406.037 254C396.013 254 391 257.922 391 265.762c0 6.826 3.546 10.238 10.634 10.238 2.719 0 5.656-.543 8.806-1.634 3.151-1.088 6.337-2.685 9.56-4.791V255.96c-4.87-1.308-9.525-1.961-13.963-1.961zm1.588-29c12.252 0 18.375 5.353 18.375 16.056v38.141c0 1.079-.53 1.617-1.59 1.617h-2.232c-1.063 0-1.63-.538-1.7-1.617l-.424-4.633c-6.092 4.956-12.465 7.436-19.12 7.436-4.887 0-8.764-1.419-11.632-4.257-2.868-2.836-4.302-6.626-4.302-11.368 0-5.241 1.753-9.373 5.258-12.39 3.506-3.018 8.34-4.524 14.5-4.524 2.265 0 4.743.215 7.435.645a53.16 53.16 0 017.755 1.832v-9.05c0-4.382-1.029-7.526-3.083-9.429-2.054-1.902-5.452-2.855-10.197-2.855-4.39 0-9.028.718-13.913 2.155-.78.216-1.4.412-1.858.593-.465.18-.835.268-1.116.268-.851 0-1.276-.466-1.276-1.4v-1.724c0-1.078.46-1.794 1.382-2.154 2.69-1.08 5.577-1.904 8.657-2.479a49.407 49.407 0 019.081-.863z"/><path fill="#5FCAF4" d="M302.623 0C254.783 0 216 38.803 216 86.667c0 43.947 32.694 80.248 75.074 85.898v-17.463c0-4.925-3.104-9.35-7.77-10.917-24.452-8.218-41.945-31.601-41.3-58.98.784-33.332 27.922-59.538 61.244-59.202 33.2.336 60.012 27.367 60.012 60.664 0 .759-.019 1.514-.047 2.265l-.018.507a63.499 63.499 0 01-.13 2.086c-.016.22-.038.44-.058.66a56.912 56.912 0 01-.355 3.067c-.033.246-.067.493-.104.738-7.424 48.927-71.118 76.426-71.467 76.577 3.777.502 7.629.766 11.542.766 47.84 0 86.624-38.801 86.624-86.666C389.247 38.803 350.464 0 302.623 0"/></g></svg>